<svg width="55.000000" height="55.000000" viewBox="0 0 55 55" fill="none" xmlns="http://www.w3.org/2000/svg" xmlns:xlink="http://www.w3.org/1999/xlink">
	<desc>
			Created with Pixso.
	</desc>
	<defs>
		<clipPath id="clip13_1">
			<rect id="画板 2" width="55.000000" height="55.000000" fill="white"/>
		</clipPath>
	</defs>
	<rect id="画板 2" width="55.000000" height="55.000000" fill="#000000"/>
	<g clip-path="url(#clip13_1)">
		<path id="ZL SERVER" d="M5.31029 37.3169L21.6287 37.3169L21.6287 32.8198L11.9094 32.8198L21.5408 18.208L21.5408 15L6.24047 15L6.24047 19.4385L14.9416 19.4385L5.31029 34.0796L5.31029 37.3169ZM25.2865 37.3169L39.3271 37.3169L39.3271 32.8198L30.6552 32.8198L30.6552 15L25.2865 15L25.2865 37.3169ZM7.50047 47.6221C9.12205 47.6221 10.0581 46.6422 10.0581 45.5259C10.0581 44.5811 9.5615 44.023 8.73533 43.689L7.89817 43.3572C7.30272 43.1221 6.88084 42.9793 6.88084 42.6102C6.88084 42.2498 7.18626 42.0521 7.68064 42.0521C8.20359 42.0521 8.61668 42.2322 9.05833 42.564L9.86033 41.5577C9.27366 40.971 8.45628 40.6744 7.68064 40.6744C6.25901 40.6744 5.25047 41.5753 5.25047 42.7003C5.25047 43.6715 5.90745 44.2559 6.61058 44.535L7.46531 44.8953C8.041 45.1392 8.41014 45.2645 8.41014 45.6512C8.41014 46.0115 8.13108 46.2379 7.53782 46.2379C7.00608 46.2379 6.38646 45.9588 5.90745 45.5523L4.99998 46.6597C5.69212 47.2991 6.62815 47.6221 7.50047 47.6221ZM11.1729 47.4969L15.5212 47.4969L15.5212 46.1478L12.7835 46.1478L12.7835 44.7239L15.0247 44.7239L15.0247 43.3748L12.7835 43.3748L12.7835 42.1334L15.4224 42.1334L15.4224 40.8018L11.1729 40.8018L11.1729 47.4969ZM18.4535 42.0696L19.1742 42.0696C19.9388 42.0696 20.3453 42.2762 20.3453 42.9068C20.3453 43.5374 19.9388 43.8692 19.1742 43.8692L18.4535 43.8692L18.4535 42.0696ZM22.2613 47.4969L20.7672 44.8426C21.4593 44.5174 21.9185 43.889 21.9185 42.9068C21.9185 41.2874 20.732 40.8018 19.2994 40.8018L16.8429 40.8018L16.8429 47.4969L18.4535 47.4969L18.4535 45.1392L19.2291 45.1392L20.4618 47.4969L22.2613 47.4969ZM24.2064 47.4969L26.1312 47.4969L28.1483 40.8018L26.5092 40.8018L25.7533 43.8516C25.5643 44.5723 25.4215 45.2645 25.2303 45.994L25.1864 45.994C24.9886 45.2645 24.8634 44.5723 24.6635 43.8516L23.8988 40.8018L22.1981 40.8018L24.2064 47.4969ZM28.8399 47.4969L33.1882 47.4969L33.1882 46.1478L30.4505 46.1478L30.4505 44.7239L32.6917 44.7239L32.6917 43.3748L30.4505 43.3748L30.4505 42.1334L33.0894 42.1334L33.0894 40.8018L28.8399 40.8018L28.8399 47.4969ZM36.1205 42.0696L36.8412 42.0696C37.6058 42.0696 38.0123 42.2762 38.0123 42.9068C38.0123 43.5374 37.6058 43.8692 36.8412 43.8692L36.1205 43.8692L36.1205 42.0696ZM39.9283 47.4969L38.4342 44.8426C39.1263 44.5174 39.5855 43.889 39.5855 42.9068C39.5855 41.2874 38.399 40.8018 36.9664 40.8018L34.5099 40.8018L34.5099 47.4969L36.1205 47.4969L36.1205 45.1392L36.8961 45.1392L38.1288 47.4969L39.9283 47.4969Z" fill-rule="evenodd" fill="#FFFFFF"/>
	</g>
</svg>
